<svg width="14" height="14" viewBox="0 0 14 14" fill="none" xmlns="http://www.w3.org/2000/svg">
<path fill-rule="evenodd" clip-rule="evenodd" d="M0.879474 0.658981C1.10764 0.529799 1.39396 0.568719 1.57936 0.754122L1.63799 0.812747C2.61124 1.786 3.93577 2.33326 5.31306 2.33326C7.06591 2.33326 8.65607 3.04497 9.80606 4.19357C10.9543 5.3404 11.6669 6.92607 11.6669 8.67694V9.09694C11.6669 10.3673 12.2311 11.5719 13.207 12.3851C13.416 12.5593 13.4769 12.8548 13.3537 13.0974C13.2305 13.3399 12.956 13.4652 12.692 13.3992L5.35252 11.5643L3.74184 13.175C3.58713 13.3297 3.3773 13.4166 3.15851 13.4166C2.70289 13.4166 2.33355 13.0473 2.33355 12.5916V11.6666H1.40845C0.952869 11.6666 0.583549 11.2973 0.583549 10.8417C0.583549 10.6229 0.670454 10.4131 0.825143 10.2584L2.43585 8.64766L0.600962 1.30808C0.537372 1.05371 0.651309 0.788166 0.879474 0.658981ZM11.2372 11.8329L5.83356 10.482V8.99154L7.4127 7.41239L7.41462 7.41053L9.37106 5.45407C10.0781 6.33889 10.5002 7.45859 10.5002 8.67694V9.09694C10.5002 10.0692 10.76 11.0113 11.2372 11.8329ZM5.31306 3.49993C6.53426 3.49993 7.65787 3.92219 8.54553 4.62965L5.00859 8.16659H3.51817L2.13984 2.65328C3.09744 3.20332 4.19101 3.49993 5.31306 3.49993ZM13.3994 1.30808C13.4491 1.10929 13.3909 0.899005 13.246 0.754117C13.1011 0.609228 12.8908 0.550985 12.692 0.600682L10.3587 1.18402C10.1548 1.23499 9.99412 1.39169 9.93801 1.59422C9.88189 1.79675 9.93911 2.01381 10.0877 2.16241L11.8377 3.91241C11.9863 4.06102 12.2034 4.11819 12.4059 4.0621C12.6084 4.006 12.7651 3.84529 12.8161 3.64141L13.3994 1.30808Z" fill="#FF5C00"/>
</svg>
