<svg width="93" height="37" viewBox="0 0 93 37" fill="none" xmlns="http://www.w3.org/2000/svg">
<g clip-path="url(#clip0_38_439)">
<path d="M8.70128 6.36679C8.70128 6.36679 9.17792 5.33409 8.8713 4.77017C7.88381 2.9544 5.0842 2.44954 4.97916 2.34397C4.87413 2.23814 6.83983 3.79279 6.83983 3.79279C6.83983 3.79279 7.42309 4.11217 8.10051 5.29774" fill="url(#paint0_linear_38_439)"/>
<path d="M15.4151 22.0256L15.1963 29.2889L15.6085 29.1705L15.4151 22.0256Z" fill="url(#paint1_linear_38_439)"/>
<path d="M32.4555 11.5003C29.3641 3.61719 21.5103 2.45407 21.5103 2.45407C21.5103 2.45407 4.97387 2.33727 5.10675 2.3803C8.53897 3.49371 8.7135 6.24516 8.7135 6.24516L8.34004 31.9239L5.48048 35.2253C5.48048 35.2253 12.3054 35.0733 14.2594 34.996C24.8598 34.577 27.5151 31.7862 27.9639 31.3337C35.7468 23.4915 33.1422 13.2514 32.4555 11.5003ZM15.9127 28.4268V8.37363C15.9127 8.37363 19.7268 7.72552 22.3604 9.52526C25.8067 11.8801 26.334 16.6317 26.0417 18.8315C24.6003 29.6781 15.9127 28.4268 15.9127 28.4268Z" fill="url(#paint2_linear_38_439)"/>
<path d="M49.5648 0.735046C49.5648 0.735046 35.0336 4.01648 35.0336 17.9945C35.0336 29.1224 41.5699 35.2064 49.6327 35.2064C57.6955 35.2064 63.3188 29.1238 64.2315 17.9945C65.3161 4.77149 49.5648 0.735046 49.5648 0.735046ZM49.3783 30.7856C45.1353 30.7856 41.915 24.9962 41.915 18.25C41.915 7.85007 49.7109 4.4783 49.7109 4.4783C49.7109 4.4783 57.2804 7.50477 57.2804 18.25C57.2801 24.9962 53.6211 30.7856 49.3783 30.7856Z" fill="url(#paint3_linear_38_439)"/>
<path d="M65.5156 2.31484L65.3737 14.925C65.3737 14.925 66.7184 8.49845 68.8682 7.55128C71.018 6.6041 75.5284 7.67556 75.5284 7.67556L75.6106 31.2469L72.5683 35.348L86.382 35.2237L82.9286 31.6611L82.4353 7.71698L88.191 7.50985L89.9177 10.4096L90.2877 5.52143L93.5337 2.31484H65.5156Z" fill="url(#paint4_linear_38_439)"/>
<path d="M5.48313 35.3239L8.23792 32.1008L8.87132 4.77015L10.3556 4.75091L10.1235 31.9313L9.18775 33.2946L19.3428 33.1033C19.3428 33.1033 26.0499 32.6754 29.8094 26.3269C30.3831 25.3583 30.9518 24.261 31.243 22.9551C31.5924 21.389 32.3796 17.1374 31.4483 13.7972C30.6643 10.9845 28.5511 6.831 26.5056 5.60668C26.378 5.53024 26.3923 4.5534 26.3923 4.5534C26.3923 4.5534 31.2895 8.62031 32.2369 15.2225C32.5096 17.1232 32.508 21.6939 31.0674 25.0197C30.6144 26.066 28.2867 32.1246 21.4315 33.5424C19.0764 34.3546 6.55285 35.2785 6.55285 35.2785" fill="url(#paint5_linear_38_439)"/>
<path d="M37.051 12.3697C36.9866 12.9657 36.9176 13.5609 36.8582 14.1569C36.7958 14.7523 36.7433 15.3481 36.7017 15.9435C36.6797 16.2413 36.6656 16.539 36.6502 16.8364L36.6343 17.2828C36.6293 17.4314 36.6293 17.5802 36.6264 17.7286C36.6211 18.3227 36.6327 18.9155 36.676 19.5045C36.6871 19.6518 36.7009 19.7985 36.7104 19.9455C36.7176 20.0928 36.733 20.2392 36.7436 20.3859L36.7611 20.6062C36.768 20.6794 36.7778 20.7524 36.7866 20.8253L36.8279 21.1535C36.8327 21.1899 36.8396 21.2259 36.8454 21.2623L36.9184 21.6971C36.9293 21.7698 36.946 21.8414 36.9608 21.9133L37.0521 22.3447C37.0688 22.4163 37.0881 22.4871 37.1059 22.5585C37.1428 22.7007 37.1773 22.8437 37.2163 22.9853L37.3743 23.5132C37.3847 23.5484 37.3979 23.5826 37.4093 23.6177L37.4812 23.8261C37.5719 24.1059 37.6847 24.3775 37.7902 24.6519C37.8475 24.7872 37.9075 24.9216 37.9658 25.0563C37.9958 25.1234 38.0234 25.1916 38.0552 25.2578L38.2472 25.6545C38.2791 25.7207 38.3106 25.787 38.3462 25.8514L38.5536 26.2403C38.587 26.3058 38.6249 26.3686 38.6621 26.4322L38.8844 26.8128C38.922 26.8758 38.9629 26.9368 39.0019 26.999C39.0812 27.1225 39.1589 27.2473 39.2395 27.37L39.4907 27.7319C39.5721 27.854 39.6636 27.9692 39.7512 28.0871C39.8403 28.2036 39.9252 28.3236 40.0201 28.4358L40.2984 28.7771C40.3936 28.8888 40.492 28.9976 40.5885 29.108C40.6373 29.1628 40.6851 29.2186 40.7347 29.2724L41.0386 29.5904C41.0896 29.6433 41.1389 29.6973 41.1925 29.7475L41.5084 30.0536C41.5349 30.079 41.5606 30.1051 41.588 30.1295L41.9972 30.4964C42.0519 30.5453 42.1097 30.5905 42.1656 30.6378L42.5046 30.9182C42.738 31.0954 42.9669 31.279 43.2091 31.4441C45.1212 32.8013 47.3307 33.7287 49.6319 34.155L49.5163 34.1595C50.725 33.8377 51.9284 33.5151 53.0949 33.1001C53.6779 32.8927 54.2511 32.6623 54.807 32.3982C55.3632 32.1347 55.9009 31.8357 56.4128 31.4989C57.4326 30.8185 58.3496 29.9809 59.1315 29.0286C59.9169 28.0788 60.5696 27.0183 61.0898 25.8966L61.1847 25.6849L61.2319 25.5791L61.277 25.4722L61.3669 25.2584L61.4521 25.0424L61.4945 24.9345L61.6147 24.6079L61.69 24.3884C61.7152 24.3152 61.7404 24.242 61.763 24.1682C61.9518 23.5786 62.1107 22.9794 62.2242 22.3701L62.3085 21.9128L62.3192 21.8556L62.3274 21.7981L62.3436 21.683L62.3762 21.4526C62.4255 21.1463 62.4486 20.8365 62.4812 20.5279C62.4902 20.4509 62.4934 20.3731 62.4985 20.2956L62.5125 20.0631C62.5207 19.9081 62.5345 19.7533 62.5348 19.5981C62.538 19.4428 62.539 19.2875 62.5406 19.1322C62.5406 19.0935 62.542 19.0547 62.5412 19.0157L62.5388 18.8992C62.5375 18.8214 62.5369 18.7439 62.5369 18.6661L62.5393 18.4331L62.5409 18.3165L62.5385 18.2L62.5295 17.7331L62.5271 17.6163L62.4889 16.9161C62.4863 16.8771 62.4823 16.8383 62.4791 16.7996C62.4513 16.489 62.4287 16.1768 62.3868 15.8671L62.3587 15.6343C62.3491 15.5568 62.3409 15.4788 62.3279 15.4018L62.2576 14.9376C62.2364 14.7823 62.2062 14.6286 62.1781 14.4744L62.1144 14.1275C62.1075 14.0887 62.1003 14.0502 62.0916 14.012L61.9926 13.5518C61.9757 13.4751 61.9608 13.3979 61.942 13.3217L61.8858 13.0929C61.8484 12.9403 61.8123 12.7872 61.7738 12.6348L61.5866 11.9523L61.5179 11.7264L61.3813 11.2739C61.8579 12.44 62.2571 13.644 62.5438 14.8801L62.6489 15.3443C62.6672 15.4216 62.6809 15.4999 62.6958 15.5776L62.7404 15.8118C62.8043 16.1234 62.8486 16.4382 62.8982 16.7528C62.904 16.7921 62.9106 16.8314 62.916 16.8709L62.93 16.9896L62.9868 17.4642L63.0008 17.5829L63.061 18.2986L63.0671 18.4184L63.077 18.6578C63.0793 18.7377 63.0815 18.8176 63.0825 18.8973L63.0839 19.017C63.0841 19.0568 63.0817 19.0969 63.0807 19.1368C63.0754 19.2966 63.0695 19.4561 63.0658 19.616C63.0648 19.7758 63.0512 19.9353 63.0425 20.0949L63.0281 20.3344C63.0231 20.414 63.0197 20.4939 63.0104 20.5736C62.977 20.8916 62.9526 21.2107 62.9019 21.5269L62.8682 21.7645L62.8427 21.9425L62.7446 22.4735C62.6271 23.1029 62.4627 23.7238 62.2674 24.3334C62.2438 24.4098 62.2181 24.4857 62.1918 24.5614L62.1139 24.7885L62.0308 25.0138L61.9892 25.1263L61.8571 25.4615L61.764 25.6828L61.7173 25.7934L61.5699 26.1222C61.0314 27.2834 60.355 28.3829 59.5386 29.3704C58.7259 30.3601 57.77 31.2341 56.7038 31.9455C56.1682 32.2978 55.6083 32.6091 55.0325 32.8817C54.4569 33.1551 53.867 33.3922 53.2707 33.6041C52.0774 34.0285 50.8602 34.3541 49.651 34.6761L49.5937 34.6913L49.5354 34.6807C47.1596 34.2407 44.8788 33.2837 42.903 31.8814C42.6529 31.7106 42.4163 31.5208 42.1752 31.3378C42.0577 31.2421 41.9418 31.1445 41.8248 31.048C41.767 30.9991 41.7073 30.9524 41.6508 30.9018L41.2278 30.5223C41.1996 30.497 41.1731 30.47 41.1455 30.4438L40.8188 30.1273C40.7633 30.0755 40.7121 30.0196 40.6596 29.9648L40.3453 29.6356C40.2938 29.5797 40.2445 29.5223 40.1941 29.4656C40.0941 29.3515 39.9923 29.239 39.8939 29.1232L39.6061 28.7704C39.5082 28.6545 39.4201 28.5304 39.3278 28.4099C39.2371 28.288 39.143 28.1691 39.0584 28.0427L38.7987 27.6683C38.7151 27.5413 38.6348 27.4125 38.5528 27.2847C38.5125 27.2203 38.4703 27.1573 38.4313 27.092L38.2011 26.6986C38.1629 26.6329 38.1236 26.5679 38.0889 26.5003L37.8743 26.0981C37.8374 26.0316 37.8048 25.9629 37.7719 25.8945L37.6725 25.6892L37.5733 25.4839C37.5404 25.4153 37.5117 25.345 37.4807 25.2755C37.4202 25.136 37.3582 24.997 37.299 24.8569C37.1895 24.5731 37.073 24.2917 36.9789 24.002L36.9046 23.786C36.8927 23.7499 36.8791 23.7144 36.8683 23.6778L36.8354 23.5685L36.7043 23.1307C36.6638 22.984 36.6282 22.8357 36.5898 22.6884C36.5712 22.6144 36.5513 22.5409 36.5341 22.4668L36.4396 22.0194C36.4242 21.9449 36.4067 21.8706 36.3956 21.7952L36.32 21.3441C36.3139 21.3064 36.3067 21.269 36.302 21.2313L36.2876 21.118L36.2585 20.8913C36.2492 20.8157 36.2378 20.7403 36.229 20.6647L36.2054 20.4375C36.19 20.286 36.172 20.1347 36.1659 19.9826C36.159 19.8308 36.1516 19.6788 36.15 19.5267C36.1412 18.3107 36.2447 17.104 36.4163 15.9136C36.5847 14.7216 36.8157 13.5449 37.051 12.3697Z" fill="url(#paint6_linear_38_439)"/>
<path d="M48.1423 5.25816C46.9243 5.91428 45.8217 6.74787 44.8748 7.71696L44.6979 7.8987L44.5276 8.08685C44.4711 8.14966 44.4133 8.21113 44.3579 8.27474L44.1131 8.56472C44.0857 8.59679 44.0587 8.62886 44.033 8.66253L43.8775 8.86137C43.7717 8.99206 43.6757 9.13051 43.577 9.26601C43.1858 9.81095 42.8396 10.3856 42.5428 10.9794C42.4683 11.1277 42.3935 11.2755 42.3126 11.4201C42.2391 11.5687 42.1585 11.7136 42.0858 11.863C41.9421 12.162 41.8161 12.4699 41.7015 12.7821C41.4721 13.4061 41.2925 14.0494 41.1604 14.7037C41.027 15.3577 40.9479 16.0237 40.91 16.6924C40.8734 17.3613 40.8777 18.0338 40.9291 18.7038C41.0291 20.0436 41.2906 21.3751 41.7097 22.6499C41.7365 22.7293 41.7609 22.8097 41.7898 22.8883L41.8742 23.1251C41.9017 23.2042 41.9333 23.2817 41.9628 23.36C41.9925 23.438 42.0219 23.5164 42.0553 23.5944L42.2497 24.0634C42.2662 24.1025 42.2816 24.142 42.2988 24.1805L42.4558 24.5263C42.7373 25.1397 43.0431 25.741 43.3924 26.3116C43.7396 26.8836 44.1218 27.4309 44.5457 27.9382L44.6247 28.0336L44.6642 28.0814L44.9541 28.4022C44.9817 28.4329 45.0114 28.461 45.0398 28.4906L45.2125 28.6662C45.269 28.7261 45.3302 28.7801 45.3899 28.8362L45.5695 29.0035L45.8488 29.2414C45.8793 29.2683 45.9127 29.2916 45.9443 29.317L46.1368 29.4664C46.2013 29.5158 46.2687 29.5605 46.3344 29.6078L46.4336 29.6781C46.4665 29.7018 46.5013 29.7221 46.535 29.7443L46.7387 29.875C47.0151 30.0405 47.2997 30.1901 47.5925 30.3179C48.1773 30.5734 48.7999 30.7377 49.4203 30.7877C49.5749 30.7989 49.729 30.8035 49.8786 30.7987C50.0083 30.7941 50.1475 30.7722 50.2902 30.7388C50.5764 30.6717 50.8714 30.5595 51.1589 30.424C51.3032 30.3569 51.4459 30.2826 51.5873 30.2038C51.7289 30.1257 51.8682 30.0415 52.0061 29.9541C52.2817 29.7788 52.5506 29.5888 52.8108 29.3857C53.3323 28.9805 53.8214 28.5272 54.2768 28.0414C54.7322 27.5555 55.1534 27.0356 55.5367 26.4888C56.3027 25.3949 56.9183 24.1939 57.3502 22.9295C57.7844 21.6653 58.0305 20.3386 58.0912 19.0007L58.1016 18.7498L58.1056 18.4985L58.1074 18.3729L58.1064 18.2473L58.104 17.9961L58.0952 17.7449L58.091 17.6192L58.0687 17.2427L58.0369 16.8666L58.0233 16.7416L57.996 16.4914L57.9459 16.1172L57.887 15.7444L57.8194 15.3729L57.743 15.003L57.6578 14.635L57.5639 14.2689L57.4958 14.0265L57.4618 13.9051L57.3512 13.5438L57.2324 13.1851L57.1056 12.8291L57.0157 12.5939L56.9706 12.4763L56.9229 12.3598C56.8905 12.2823 56.8584 12.2048 56.825 12.1276C56.7908 12.0509 56.7547 11.975 56.7197 11.8988C56.6844 11.8226 56.6494 11.7465 56.6128 11.6708C56.577 11.5949 56.5422 11.5185 56.5088 11.4415C56.4741 11.3651 56.4401 11.2884 56.4072 11.2109C56.1457 10.5906 55.8394 9.98815 55.5036 9.40017C55.1648 8.8138 54.7935 8.244 54.3811 7.70681C53.9678 7.17041 53.5105 6.66609 52.9962 6.2211C52.7382 6.00008 52.4673 5.79215 52.1809 5.60507C51.8931 5.42039 51.5918 5.25416 51.2772 5.11037C51.4417 5.16142 51.6093 5.20818 51.7708 5.27179L51.8931 5.31696C51.9342 5.33166 51.9732 5.35063 52.0135 5.3672C52.0931 5.40222 52.1743 5.43509 52.2533 5.47197L52.4886 5.58769C52.5283 5.6064 52.5663 5.62778 52.6045 5.64917L52.7196 5.71277L52.8347 5.77665L53.0594 5.91429C53.097 5.937 53.1347 5.95999 53.1708 5.98511L53.3896 6.13291C53.4617 6.18342 53.5318 6.2366 53.6031 6.28845C53.6384 6.31491 53.675 6.34003 53.7092 6.36756L53.8129 6.44961C53.8816 6.50493 53.9527 6.55812 54.019 6.61611L54.2208 6.78797L54.4169 6.9665C54.4832 7.02529 54.5455 7.08783 54.6092 7.14903C54.6726 7.21077 54.737 7.27171 54.798 7.33558C55.7895 8.34717 56.6287 9.50093 57.3324 10.7453C57.3756 10.8233 57.4186 10.9016 57.4594 10.9813C57.4987 11.0615 57.5372 11.1422 57.574 11.2234L57.6287 11.3458L57.6799 11.4696L57.782 11.7173C57.9133 12.0493 58.0496 12.3796 58.1652 12.7177L58.2101 12.8438L58.3363 13.2255L58.4148 13.4818L58.4538 13.6101L58.5626 13.9973L58.6623 14.387L58.753 14.7791L58.8074 15.0418L58.8344 15.1733L58.8586 15.3053L58.9066 15.5694L58.9695 15.967L59.0228 16.3663L59.0665 16.767L59.0779 16.9008L59.1005 17.1686L59.1246 17.5711L59.1387 17.9742L59.1413 18.243L59.1424 18.3775L59.136 18.7808L59.1252 19.0496C59.0604 20.4829 58.7955 21.9117 58.3286 23.2702C57.8642 24.6295 57.2035 25.9182 56.382 27.0912C55.9709 27.6776 55.5192 28.2351 55.0296 28.7579C54.5394 29.2804 54.0124 29.7695 53.4434 30.2115C53.1596 30.4331 52.8644 30.6423 52.5578 30.8372C52.4042 30.9342 52.2483 31.0285 52.0878 31.117C51.9278 31.2063 51.7647 31.291 51.5963 31.3695C51.2605 31.527 50.9088 31.6641 50.5242 31.7549C50.3319 31.7996 50.1295 31.8332 49.9152 31.841C49.7205 31.8474 49.5303 31.8415 49.3417 31.8276C48.589 31.767 47.8625 31.5716 47.1843 31.2763C46.8453 31.1285 46.5185 30.9566 46.2032 30.7674L45.9713 30.6188C45.9331 30.5937 45.8934 30.5702 45.8562 30.5435L45.744 30.4643C45.6698 30.4109 45.5934 30.3598 45.5207 30.3045L45.3043 30.1364C45.2687 30.1078 45.2313 30.0813 45.1971 30.0511L45.0929 29.9627L44.8849 29.7852L44.6852 29.5995C44.6189 29.5372 44.551 29.4765 44.4886 29.4108L44.2977 29.217C44.2661 29.1844 44.2332 29.1529 44.203 29.1195L43.9303 28.8172L43.885 28.7667L43.7552 28.6104C43.2921 28.0563 42.8805 27.4657 42.5094 26.8544C42.136 26.244 41.8126 25.6082 41.5166 24.9628L41.4065 24.7204L41.3516 24.599C41.3336 24.5584 41.3174 24.5173 41.3002 24.4766L41.0965 23.9857C41.0617 23.9044 41.0302 23.8205 40.9981 23.7368C40.9665 23.6529 40.9328 23.5698 40.9034 23.4854L40.8135 23.2325C40.783 23.1483 40.7567 23.0628 40.7281 22.9781C40.2814 21.6191 40.0042 20.2082 39.8976 18.7813C39.8427 18.068 39.8379 17.3501 39.8772 16.6341C39.9177 15.9181 40.0026 15.2029 40.1464 14.4979C40.2886 13.7926 40.4827 13.0967 40.7315 12.42L40.7774 12.2927C40.793 12.2505 40.8106 12.2088 40.8273 12.1671L40.9281 11.9162C40.9604 11.832 40.9981 11.7499 41.0344 11.6676L41.1413 11.4191C41.1585 11.3774 41.1779 11.3365 41.197 11.2956L41.2543 11.1729C41.2922 11.0909 41.3307 11.0093 41.3699 10.9278C41.4113 10.8477 41.4548 10.7685 41.4988 10.6897C41.5431 10.6111 41.5874 10.5323 41.6352 10.4559C42.0248 9.84704 42.4638 9.27643 42.942 8.74618C43.0635 8.61522 43.1818 8.48187 43.3094 8.35732L43.4974 8.1681C43.5282 8.13603 43.5608 8.10583 43.5935 8.07563L43.8852 7.80276C43.951 7.74316 44.0189 7.68623 44.0855 7.6277L44.2868 7.45478L44.4942 7.28934C45.5997 6.40818 46.8373 5.71491 48.1423 5.25816Z" fill="url(#paint7_linear_38_439)"/>
<path d="M68.2186 5.90547L68.0412 7.41469L69.0266 6.54101L76.8305 6.44159L77.0328 31.7237L75.3464 32.2438C75.3464 32.2438 75.2632 33.3556 73.3333 34.8044C72.7797 35.22 72.9646 35.2178 72.9646 35.2178L73.8653 35.2245C73.8653 35.2245 76.4761 33.9005 78.5407 33.9005C80.6051 33.9005 82.9055 34.1066 83.8272 34.725C84.7492 35.3435 84.7866 35.1609 84.7866 35.1609L85.7418 35.2018L82.9241 32.0142C82.9241 32.0142 81.648 32.1494 81.513 31.7867C81.378 31.4241 81.5003 6.55517 81.5003 6.55517L88.8278 6.42315L89.9731 9.51296L90.0559 7.4481L88.9106 5.10983L88.4435 5.81593L80.9666 5.81486L81.2043 31.9722L82.6034 33.5274L76.3392 33.3091L77.323 32.3087L77.2246 5.83839L68.2186 5.90547Z" fill="url(#paint8_linear_38_439)"/>
</g>
<defs>
<linearGradient id="paint0_linear_38_439" x1="6.97463" y1="2.33881" x2="6.97463" y2="6.36679" gradientUnits="userSpaceOnUse">
<stop stop-color="white"/>
<stop offset="1" stop-color="white" stop-opacity="0"/>
</linearGradient>
<linearGradient id="paint1_linear_38_439" x1="15.4024" y1="22.0256" x2="15.4024" y2="29.2889" gradientUnits="userSpaceOnUse">
<stop stop-color="white"/>
<stop offset="1" stop-color="white" stop-opacity="0"/>
</linearGradient>
<linearGradient id="paint2_linear_38_439" x1="46.9998" y1="9.5" x2="55.4998" y2="42.5" gradientUnits="userSpaceOnUse">
<stop stop-color="white"/>
<stop offset="1" stop-color="white" stop-opacity="0.37"/>
</linearGradient>
<linearGradient id="paint3_linear_38_439" x1="46.9998" y1="9.5" x2="55.4998" y2="42.5" gradientUnits="userSpaceOnUse">
<stop stop-color="white"/>
<stop offset="1" stop-color="white" stop-opacity="0.37"/>
</linearGradient>
<linearGradient id="paint4_linear_38_439" x1="46.9998" y1="9.5" x2="55.4998" y2="42.5" gradientUnits="userSpaceOnUse">
<stop stop-color="white"/>
<stop offset="1" stop-color="white" stop-opacity="0.37"/>
</linearGradient>
<linearGradient id="paint5_linear_38_439" x1="46.9998" y1="9.5" x2="55.4998" y2="42.5" gradientUnits="userSpaceOnUse">
<stop stop-color="white"/>
<stop offset="1" stop-color="white" stop-opacity="0.37"/>
</linearGradient>
<linearGradient id="paint6_linear_38_439" x1="46.9998" y1="9.5" x2="55.4998" y2="42.5" gradientUnits="userSpaceOnUse">
<stop stop-color="white"/>
<stop offset="1" stop-color="white" stop-opacity="0.37"/>
</linearGradient>
<linearGradient id="paint7_linear_38_439" x1="46.9998" y1="9.5" x2="55.4998" y2="42.5" gradientUnits="userSpaceOnUse">
<stop stop-color="white"/>
<stop offset="1" stop-color="white" stop-opacity="0.37"/>
</linearGradient>
<linearGradient id="paint8_linear_38_439" x1="46.9998" y1="9.5" x2="55.4998" y2="42.5" gradientUnits="userSpaceOnUse">
<stop stop-color="white"/>
<stop offset="1" stop-color="white" stop-opacity="0.37"/>
</linearGradient>
<clipPath id="clip0_38_439">
<rect width="93" height="37" fill="white"/>
</clipPath>
</defs>
</svg>
